<svg width="14px" height="14px" viewBox="0 0 14 14" version="1.1" xmlns="http://www.w3.org/2000/svg" xmlns:xlink="http://www.w3.org/1999/xlink">
    <defs>
        <path d="M5.09194374,0 L8.91033249,0 C9.86976669,0 10.1804731,0.264228571 10.1804731,1.08702857 L10.1804731,2.17405714 L12.9813836,2.17405714 C13.5436143,2.17405714 14,2.54028571 14,2.98908571 C14,3.4408 13.5436143,3.80605714 12.9813836,3.80605714 L1.01747825,3.80605714 C0.455247541,3.80605714 0,3.4408 0,2.98908571 C0,2.54028571 0.455247541,2.17405714 1.01747825,2.17405714 L3.81952687,2.17405714 L3.81952687,1.08702857 C3.81952687,0.366228571 4.20990163,0 5.09194374,0 Z M5.34617143,2.17405714 L8.60531429,2.17405714 L8.60531429,1.08702857 L5.34617143,1.08702857 L5.34617143,2.17405714 Z M1.544,5 L12.4084571,5 L11.2903429,13.168994 C11.2903429,13.168994 11.0494286,14 9.7992,14 L4.15131429,14 C2.90108571,14 2.6592,13.168994 2.6592,13.168994 L1.544,5 Z" id="path-1"></path>
    </defs>
    <g id="Page-1" stroke="none" stroke-width="1" fill="none" fill-rule="evenodd">
        <g id="Dashboard" transform="translate(-1453.000000, -288.000000)">
            <g id="table" transform="translate(98.000000, 228.000000)">
                <g id="delete" transform="translate(1355.000000, 60.000000)">
                    <g id="Page-1">
                        <mask id="mask-2" fill="white">
                            <use xlink:href="#path-1"></use>
                        </mask>
                        <g id="Clip-2"></g>
                        <polygon id="Fill-1" fill="#224FF7" mask="url(#mask-2)" points="-4 19.2857143 17.6628571 19.2857143 17.6628571 -5 -4 -5"></polygon>
                    </g>
                </g>
            </g>
        </g>
    </g>
</svg>
