<svg width="19px" height="19px" viewBox="0 0 19 19" version="1.1" xmlns="http://www.w3.org/2000/svg" xmlns:xlink="http://www.w3.org/1999/xlink">
    <g id="Page-1" stroke="none" stroke-width="1" fill="none" fill-rule="evenodd">
        <g id="Dashboard" transform="translate(-1422.000000, -286.000000)" fill="#224FF7">
            <g id="table" transform="translate(98.000000, 228.000000)">
                <g id="edit" transform="translate(1322.000000, 58.000000)">
                    <g id="Group-3">
                        <g id="Group-2">
                            <path d="M8.20119126,17.5772318 L7.16077459,15.0866484 L10.6065246,15.0866484 L9.55235793,17.5772318 L8.20119126,17.5772318 Z M11.9567746,14.0343151 C11.9586079,14.0058984 11.9604413,13.9774818 11.9604413,13.9490651 L11.9604413,4.19206512 L5.77752459,4.19206512 L5.77752459,13.9490651 C5.77752459,14.0031484 5.78027459,14.0535651 5.78669126,14.1058151 C5.77935793,14.2249818 5.79769126,14.3468984 5.84627459,14.4605651 L8.33869126,20.4353984 C8.43677459,20.6746484 8.64210793,20.8258984 8.86669126,20.8268151 L8.86944126,20.8268151 C9.09310793,20.8268151 9.29569126,20.6773984 9.39835793,20.4408984 L11.9109413,14.5100651 C11.9741913,14.3560651 11.9879413,14.1892318 11.9567746,14.0343151 L11.9567746,14.0343151 Z" id="Fill-1" transform="translate(8.875166, 12.509440) rotate(45.000000) translate(-8.875166, -12.509440) "></path>
                            <path d="M20.5930398,2.95073877 C20.5930398,2.17065543 20.0687065,1.53815543 19.4187898,1.53815543 L15.5843731,1.53815543 C14.9353731,1.53815543 14.4110398,2.17065543 14.4110398,2.95073877 L14.4110398,6.20948877 L20.5930398,6.20948877 L20.5930398,2.95073877 Z" id="Fill-4" transform="translate(17.502040, 3.873822) rotate(45.000000) translate(-17.502040, -3.873822) "></path>
                        </g>
                    </g>
                </g>
            </g>
        </g>
    </g>
</svg>
