<svg width="36px" height="35px" viewBox="0 0 36 35" version="1.1" xmlns="http://www.w3.org/2000/svg" xmlns:xlink="http://www.w3.org/1999/xlink">
    <g id="Page-1" stroke="none" stroke-width="1" fill="none" fill-rule="evenodd">
        <g id="Dashboard-MENU" transform="translate(-1544.000000, -531.000000)" fill="#FFFFFE">
            <g id="menu" transform="translate(1365.000000, 0.000000)">
                <g id="Group-9" transform="translate(20.000000, 531.000000)">
                    <path d="M176.887648,3.26849658e-13 C167.009868,3.26849658e-13 159,7.98540441 159,17.836679 C159,25.7175214 164.125356,32.4035808 171.232665,34.7621328 C172.126633,34.9272462 172.454836,34.3751944 172.454836,33.9040747 C172.454836,33.4787379 172.438248,32.0736493 172.430547,30.583198 C167.454186,31.662195 166.404114,28.4786666 166.404114,28.4786666 C165.59042,26.4169643 164.418013,25.8687523 164.418013,25.8687523 C162.795068,24.7616949 164.540349,24.7844386 164.540349,24.7844386 C166.336578,24.9099721 167.282383,26.6225438 167.282383,26.6225438 C168.87778,29.3494257 171.466969,28.5610756 172.487716,28.1053154 C172.648262,26.9527706 173.111834,26.1653066 173.623392,25.7201798 C169.650301,25.2691455 165.473712,23.739705 165.473712,16.9050731 C165.473712,14.95768 166.172477,13.3665066 167.316743,12.1173749 C167.131018,11.6678175 166.518748,9.85393292 167.490027,7.39702174 C167.490027,7.39702174 168.992118,6.91763164 172.410404,9.22537955 C173.837257,8.8301707 175.367488,8.63197553 176.887648,8.62518196 C178.407808,8.63197553 179.939224,8.8301707 181.368743,9.22537955 C184.782882,6.91763164 186.282899,7.39702174 186.282899,7.39702174 C187.256548,9.85393292 186.643982,11.6678175 186.458257,12.1173749 C187.605189,13.3665066 188.299214,14.95768 188.299214,16.9050731 C188.299214,23.7559505 184.114628,25.2644195 180.131465,25.7060019 C180.77306,26.2595306 181.34475,27.3450257 181.34475,29.0091562 C181.34475,31.3954733 181.324015,33.3162828 181.324015,33.9040747 C181.324015,34.3787389 181.645997,34.9349259 182.552702,34.7597698 C189.656161,32.3985594 194.775,25.7148631 194.775,17.836679 C194.775,7.98540441 186.766317,3.26849658e-13 176.887648,3.26849658e-13" id="Fill-52"></path>
                </g>
            </g>
        </g>
    </g>
</svg>
