
<svg width="21px" height="18px" viewBox="0 0 21 18" version="1.1" xmlns="http://www.w3.org/2000/svg" xmlns:xlink="http://www.w3.org/1999/xlink">
    <g id="Page-1" stroke="none" stroke-width="1" fill="none" fill-rule="evenodd">
        <g id="Desktop-HD" transform="translate(-1473.000000, -1120.000000)" fill="#224FF7" fill-rule="nonzero">
            <g id="print" transform="translate(1473.000000, 1120.000000)">
                <path d="M5.14285714,0 L15.4285714,0 L15.4285714,2.57142857 L5.14285714,2.57142857 L5.14285714,0 Z M19.2857143,3.85714286 L1.28571429,3.85714286 C0.578571429,3.85714286 0,4.43571429 0,5.14285714 L0,11.5714286 C0,12.2785714 0.578491071,12.8571429 1.28571429,12.8571429 L5.14285714,12.8571429 L5.14285714,18 L15.4285714,18 L15.4285714,12.8571429 L19.2857143,12.8571429 C19.9928571,12.8571429 20.5714286,12.2785714 20.5714286,11.5714286 L20.5714286,5.14285714 C20.5714286,4.43571429 19.9928571,3.85714286 19.2857143,3.85714286 Z M14.1428571,16.7142857 L6.42857143,16.7142857 L6.42857143,10.2857143 L14.1428571,10.2857143 L14.1428571,16.7142857 Z M19.5749598,5.78571429 C19.5749598,6.30052232 19.157625,6.71785714 18.6429375,6.71785714 C18.1281696,6.71785714 17.7107545,6.30052232 17.7107545,5.78571429 C17.7107545,5.27090625 18.1281696,4.85357143 18.6428571,4.85357143 C19.1577054,4.85357143 19.5749598,5.27090625 19.5749598,5.78571429 Z" id="Shape"></path>
            </g>
        </g>
    </g>
</svg>
